<svg xmlns="http://www.w3.org/2000/svg" width="100" height="100" viewBox="0 0 100 100">
  <!-- Background color -->
  <rect width="100" height="100" fill="white"/>
  
  <!-- Grid lines -->
  <line x1="10" y1="10" x2="90" y2="10" stroke="gray" stroke-width="1"/>
  <line x1="10" y1="30" x2="90" y2="30" stroke="gray" stroke-width="1"/>
  <line x1="10" y1="50" x2="90" y2="50" stroke="gray" stroke-width="1"/>
  <line x1="10" y1="70" x2="90" y2="70" stroke="gray" stroke-width="1"/>
  <line x1="10" y1="90" x2="90" y2="90" stroke="gray" stroke-width="1"/>
  
  <line x1="10" y1="10" x2="10" y2="90" stroke="gray" stroke-width="1"/>
  <line x1="30" y1="10" x2="30" y2="90" stroke="gray" stroke-width="1"/>
  <line x1="50" y1="10" x2="50" y2="90" stroke="gray" stroke-width="1"/>
  <line x1="70" y1="10" x2="70" y2="90" stroke="gray" stroke-width="1"/>
  <line x1="90" y1="10" x2="90" y2="90" stroke="gray" stroke-width="1"/>
  
  <line x1="10" y1="50" x2="90" y2="50" stroke="gray" stroke-width="1"/>
  <line x1="50" y1="10" x2="50" y2="90" stroke="gray" stroke-width="1"/>
  
  <!-- Squiggly mountain trail path -->
  <path d="M10,80 C20,70, 30,60, 40,65 C50,70, 60,55, 70,60"
        fill="none" stroke="brown" stroke-width="2"/>
  <circle cx="70" cy="60" fill="brown" r="5" />
  
  <!-- Contour lines (gray) indicating height profile, without intersection -->
  <path d="M30,30 C40,25, 55,30, 60,25 C80,40, 60,50, 80,80 C50,75, 45,70, 40,65 Z"
        fill="none" stroke="black" stroke-width="1"/>
  <path d="M45,60 C50,55, 55,55, 60,60 C65,65, 80,90, 55,70 C50,70, 45,65, 45,60 Z"
        fill="none" stroke="black" stroke-width="1"/>
  <path d="M50,55 C55,50, 55,50, 60,55 C65,60, 60,65, 55,65 C50,65, 50,60, 50,55 Z"
        fill="none" stroke="black" stroke-width="1"/>
</svg>
